<svg width="19.000000" height="19.000000" viewBox="0 0 19 19" fill="none" xmlns="http://www.w3.org/2000/svg" xmlns:xlink="http://www.w3.org/1999/xlink">
	<defs/>
	<path id="Icon" d="M8.46 0.36C8.62 -0.3 8.69 -0.63 8.82 -0.71C8.93 -0.77 9.06 -0.77 9.17 -0.71C9.3 -0.63 9.37 -0.3 9.53 0.36L10.29 3.6C10.58 4.8 10.72 5.4 11.03 5.89C11.3 6.32 11.67 6.69 12.1 6.96C12.59 7.27 13.19 7.41 14.39 7.7L17.63 8.46C18.29 8.62 18.62 8.69 18.7 8.82C18.76 8.93 18.76 9.06 18.7 9.17C18.62 9.3 18.29 9.37 17.63 9.53L14.39 10.29C13.19 10.58 12.59 10.72 12.1 11.03C11.67 11.3 11.3 11.67 11.03 12.1C10.72 12.59 10.58 13.19 10.29 14.39L9.53 17.63C9.37 18.29 9.3 18.62 9.17 18.7C9.06 18.76 8.93 18.76 8.82 18.7C8.69 18.62 8.62 18.29 8.46 17.63L7.7 14.39C7.41 13.19 7.27 12.59 6.96 12.1C6.69 11.67 6.32 11.3 5.89 11.03C5.4 10.72 4.8 10.58 3.6 10.29L0.36 9.53C-0.3 9.37 -0.63 9.3 -0.71 9.17C-0.77 9.06 -0.77 8.93 -0.71 8.82C-0.63 8.69 -0.3 8.62 0.36 8.46L3.6 7.7C4.8 7.41 5.4 7.27 5.89 6.96C6.32 6.69 6.69 6.32 6.96 5.89C7.27 5.4 7.41 4.8 7.7 3.6L8.46 0.36Z" fill="#000000" fill-opacity="1.000000" fill-rule="nonzero"/>
</svg>
