<svg>
    <symbol id='icon-plus' width="32" height="32" viewBox="0 0 40 40" fill="none" xmlns="http://www.w3.org/2000/svg" xmlns:xlink="http://www.w3.org/1999/xlink">
        <path fill-rule="evenodd" clip-rule="evenodd" d="M14 27.3332C21.3638 27.3332 27.3334 21.3636 27.3334 13.9998C27.3334 6.63604 21.3638 0.666504 14 0.666504C6.63622 0.666504 0.666687 6.63604 0.666687 13.9998C0.666687 21.3636 6.63622 27.3332 14 27.3332ZM12.6667 12.6665V7.33317H15.3334V12.6665H20.6667V15.3332H15.3334V20.6665H12.6667V15.3332H7.33335V12.6665H12.6667Z" fill="white"/>
    </symbol>

    <symbol id='icon-minus' width="28" height="28" viewBox="0 0 28 28" fill="none" xmlns="http://www.w3.org/2000/svg">
        <path fill-rule="evenodd" clip-rule="evenodd" d="M13.9998 27.3333C21.3636 27.3333 27.3332 21.3638 27.3332 14C27.3332 6.63616 21.3636 0.666626 13.9998 0.666626C6.63604 0.666626 0.666504 6.63616 0.666504 14C0.666504 21.3638 6.63604 27.3333 13.9998 27.3333ZM7.33317 12.6666V15.3333H20.6665V12.6666H7.33317Z" fill="white"/>
    </symbol>
    
    <symbol id='icon-calendar' width="16" height="16" viewBox="0 0 16 16" fill="none" xmlns="http://www.w3.org/2000/svg">
        <path d="M6.5 1.625C6.5 0.796573 5.82843 0.125 5 0.125C4.17157 0.125 3.5 0.796573 3.5 1.625C1.84315 1.625 0.5 2.96815 0.5 4.625H15.5C15.5 2.96815 14.1569 1.625 12.5 1.625C12.5 0.796573 11.8284 0.125 11 0.125C10.1716 0.125 9.5 0.796573 9.5 1.625H6.5Z" fill="#202020"/>
        <path fill-rule="evenodd" clip-rule="evenodd" d="M0.5 6.125H15.5V10.325C15.5 12.0052 15.5 12.8452 15.173 13.487C14.8854 14.0515 14.4265 14.5104 13.862 14.798C13.2202 15.125 12.3802 15.125 10.7 15.125H5.3C3.61984 15.125 2.77976 15.125 2.13803 14.798C1.57354 14.5104 1.1146 14.0515 0.82698 13.487C0.5 12.8452 0.5 12.0052 0.5 10.325V6.125ZM9.5 10.325C9.5 9.90496 9.5 9.69494 9.58175 9.53451C9.65365 9.39338 9.76838 9.27865 9.90951 9.20675C10.0699 9.125 10.28 9.125 10.7 9.125H11.3C11.72 9.125 11.9301 9.125 12.0905 9.20675C12.2316 9.27865 12.3463 9.39338 12.4183 9.53451C12.5 9.69494 12.5 9.90496 12.5 10.325V10.925C12.5 11.345 12.5 11.5551 12.4183 11.7155C12.3463 11.8566 12.2316 11.9713 12.0905 12.0433C11.9301 12.125 11.72 12.125 11.3 12.125H10.7C10.28 12.125 10.0699 12.125 9.90951 12.0433C9.76838 11.9713 9.65365 11.8566 9.58175 11.7155C9.5 11.5551 9.5 11.345 9.5 10.925V10.325Z" fill="#202020"/>
    </symbol>
    <symbol id='icon-time' width="16" height="16" viewBox="0 0 16 16" fill="none" xmlns="http://www.w3.org/2000/svg">
        <path fill-rule="evenodd" clip-rule="evenodd" d="M8 15.5C12.1421 15.5 15.5 12.1421 15.5 8C15.5 3.85786 12.1421 0.5 8 0.5C3.85786 0.5 0.5 3.85786 0.5 8C0.5 12.1421 3.85786 15.5 8 15.5ZM7.25 3.5V8C7.25 8.41421 7.58579 8.75 8 8.75H11.75V7.25H8.75V3.5H7.25Z" fill="#202020"/>
    </symbol>
    <symbol id='icon-level' width="18.000000" height="18.000000" viewBox="0 0 18 18" fill="none" xmlns="http://www.w3.org/2000/svg" xmlns:xlink="http://www.w3.org/1999/xlink">
	    <desc>
			Created with Pixso.
	    </desc>
	    <defs/>
	    <path id="Vector" d="M15 2.62C15.29 2.62 15.58 2.74 15.79 2.95C16 3.16 16.12 3.45 16.12 3.75L16.12 14.25C16.12 14.54 16 14.83 15.79 15.04C15.58 15.25 15.29 15.37 15 15.37C14.7 15.37 14.41 15.25 14.2 15.04C13.99 14.83 13.87 14.54 13.87 14.25L13.87 3.75C13.87 3.45 13.99 3.16 14.2 2.95C14.41 2.74 14.7 2.62 15 2.62Z" fill="#D9D9D9" fill-opacity="1.000000" fill-rule="evenodd"/>
	    <path id="Vector" d="M12 4.87C12.29 4.87 12.58 4.99 12.79 5.2C13 5.41 13.12 5.7 13.12 6L13.12 14.25C13.12 14.54 13 14.83 12.79 15.04C12.58 15.25 12.29 15.37 12 15.37C11.7 15.37 11.41 15.25 11.2 15.04C10.99 14.83 10.87 14.54 10.87 14.25L10.87 6C10.87 5.7 10.99 5.41 11.2 5.2C11.41 4.99 11.7 4.87 12 4.87Z" fill="#D9D9D9" fill-opacity="1.000000" fill-rule="evenodd"/>
	    <path id="Vector" d="M9 7.12C9.29 7.12 9.58 7.24 9.79 7.45C10 7.66 10.12 7.95 10.12 8.25L10.12 14.25C10.12 14.54 10 14.83 9.79 15.04C9.58 15.25 9.29 15.37 9 15.37C8.7 15.37 8.41 15.25 8.2 15.04C7.99 14.83 7.87 14.54 7.87 14.25L7.87 8.25C7.87 7.95 7.99 7.66 8.2 7.45C8.41 7.24 8.7 7.12 9 7.12Z" fill="#00C1FF" fill-opacity="1.000000" fill-rule="evenodd"/>
	    <path id="Vector" d="M6 9.37C6.29 9.37 6.58 9.49 6.79 9.7C7 9.91 7.12 10.2 7.12 10.5L7.12 14.25C7.12 14.54 7 14.83 6.79 15.04C6.58 15.25 6.29 15.37 6 15.37C5.7 15.37 5.41 15.25 5.2 15.04C4.99 14.83 4.87 14.54 4.87 14.25L4.87 10.5C4.87 10.2 4.99 9.91 5.2 9.7C5.41 9.49 5.7 9.37 6 9.37Z" fill="#00C1FF" fill-opacity="1.000000" fill-rule="evenodd"/>
	    <path id="Vector" d="M3 11.62C3.29 11.62 3.58 11.74 3.79 11.95C4 12.16 4.12 12.45 4.12 12.75L4.12 14.25C4.12 14.54 4 14.83 3.79 15.04C3.58 15.25 3.29 15.37 3 15.37C2.7 15.37 2.41 15.25 2.2 15.04C1.99 14.83 1.87 14.54 1.87 14.25L1.87 12.75C1.87 12.45 1.99 12.16 2.2 11.95C2.41 11.74 2.7 11.62 3 11.62Z" fill="#00C1FF" fill-opacity="1.000000" fill-rule="evenodd"/>
    </symbol>


</svg>